# xmcd CD database file
#
# Track frame offsets:
#	150
#	13566
#	30658
#	50663
#	72290
#	90491
#	104463
#	120266
#	139150
#	157745
#	169006
#	186722
#	204899
#
# Disc length: 3230 seconds
#
# Revision: 1
# Processed by: cddbd v1.5.2PL0 Copyright (c) Steve Scherf et al.
# Submitted via: CDex 1.70beta2
#
DISCID=a60c9c0d
DTITLE=Manu Lanvin and the Devil Blues - Grand Casino
DYEAR=2019
DGENRE=Blues
TTITLE0=The Devil Does It Right (ft. Beverly Jo Scott)
TTITLE1=Highway to Hell
TTITLE2=Shake It Lady
TTITLE3=When It's Too Late
TTITLE4=Satisfaction
TTITLE5=Lost under the Waves
TTITLE6=Rock me Baby
TTITLE7=So Come on down (ft. Taj Mahal)
TTITLE8=Spoonful (ft. Popa Chubby)
TTITLE9=A Bluesman in Hong-Kong
TTITLE10=I Dont't Love U
TTITLE11=Hoochie Coochie Ya Ya Yeah
TTITLE12=Je suis le diable (ft. Paul Personne)
EXTD=YEAR: 2019
EXTT0=
EXTT1=
EXTT2=
EXTT3=
EXTT4=
EXTT5=
EXTT6=
EXTT7=
EXTT8=
EXTT9=
EXTT10=
EXTT11=
EXTT12=
PLAYORDER=
